<?xml version="1.0" standalone="no"?>
<!DOCTYPE svg PUBLIC "-//W3C//DTD SVG 20010904//EN"
 "http://www.w3.org/TR/2001/REC-SVG-20010904/DTD/svg10.dtd">
<svg version="1.0" xmlns="http://www.w3.org/2000/svg"
 width="400.000000pt" height="400.000000pt" viewBox="0 0 400.000000 400.000000"
 preserveAspectRatio="xMidYMid meet">

<g transform="translate(0.000000,400.000000) scale(0.100000,-0.100000)"
fill="#000000" stroke="none">
<path d="M1810 3650 c-513 -72 -933 -334 -1204 -752 -321 -494 -353 -1110 -86
-1643 83 -165 173 -288 315 -430 186 -187 391 -314 637 -396 164 -55 288 -78
458 -85 281 -12 523 36 775 155 480 227 821 664 925 1186 11 55 23 165 26 245
16 374 -92 731 -313 1043 -78 110 -266 296 -383 380 -179 127 -415 228 -646
277 -113 24 -396 35 -504 20z m525 -50 c1018 -221 1579 -1316 1159 -2264 -211
-475 -653 -832 -1161 -937 -623 -128 -1261 115 -1644 626 -149 200 -257 454
-300 706 -28 163 -23 460 10 607 62 279 195 540 382 749 229 257 556 446 884
512 149 30 145 29 365 26 165 -2 225 -7 305 -25z"/>
<path d="M1936 3383 c32 -73 43 -85 51 -54 3 13 16 43 28 67 21 42 22 44 3 44
-11 0 -17 -4 -14 -8 7 -11 -15 -82 -25 -82 -11 0 -32 68 -24 80 4 6 -4 10 -19
10 l-25 0 25 -57z"/>
<path d="M1699 3410 c-18 -93 -23 -140 -15 -137 6 2 11 12 11 23 0 14 7 19 25
19 15 0 24 -5 23 -12 -2 -7 7 -13 18 -13 21 0 21 1 4 28 -42 64 -65 96 -66 92z
m21 -60 c9 -16 8 -20 -5 -20 -8 0 -15 9 -15 20 0 11 2 20 5 20 2 0 9 -9 15
-20z"/>
<path d="M2226 3401 c-4 -5 -2 -20 2 -33 5 -12 8 -38 8 -55 -1 -28 3 -33 23
-33 17 0 21 3 13 13 -5 6 -13 36 -17 65 -6 49 -17 64 -29 43z"/>
<path d="M2188 3341 c-20 -31 -23 -41 -12 -45 9 -3 14 2 14 14 0 12 7 20 18
21 11 0 12 2 4 6 -10 4 -10 8 -1 19 7 8 10 17 7 19 -2 3 -16 -13 -30 -34z"/>
<path d="M2441 3304 c-8 -25 -20 -48 -27 -51 -17 -6 -8 -23 12 -23 8 0 13 4
10 9 -3 5 0 24 8 42 16 37 17 35 36 -38 6 -24 14 -43 18 -43 4 0 16 23 27 50
11 28 23 50 28 50 4 0 5 5 2 10 -7 12 -26 14 -23 3 2 -5 -4 -24 -12 -43 l-14
-35 -17 55 c-9 30 -20 55 -25 57 -5 2 -16 -17 -23 -43z"/>
<path d="M1438 3323 c-10 -2 -18 -5 -18 -6 0 -1 11 -24 24 -52 14 -27 22 -53
20 -57 -8 -13 13 -9 49 8 26 12 33 21 29 36 -4 18 -5 18 -16 -3 -6 -12 -16
-24 -23 -26 -13 -5 -56 84 -47 98 3 5 4 8 2 8 -2 -1 -11 -3 -20 -6z"/>
<path d="M1770 3110 c-216 -46 -396 -140 -554 -290 -105 -100 -234 -280 -224
-312 2 -6 19 15 37 48 136 239 380 433 648 514 82 24 247 50 323 50 135 0 307
-39 455 -102 203 -88 416 -285 528 -488 10 -18 20 -30 24 -27 10 11 -87 162
-158 245 -153 181 -409 326 -648 367 -116 21 -324 18 -431 -5z"/>
<path d="M2183 2280 c-69 -42 -143 -193 -143 -293 0 -65 20 -97 59 -97 27 0
90 39 65 40 -6 0 -17 -7 -24 -15 -16 -19 -54 -19 -70 0 -55 66 29 300 128 358
31 19 35 19 50 3 30 -30 20 -127 -27 -263 -32 -95 -81 -257 -81 -270 0 -2 4
-3 8 -3 5 0 40 48 78 107 79 123 183 251 248 305 88 74 174 106 204 76 8 -8
12 -8 12 -1 0 14 -24 23 -58 23 -86 0 -249 -143 -371 -325 -41 -60 -78 -114
-82 -119 -10 -11 6 39 65 209 55 155 61 227 23 263 -29 27 -43 27 -84 2z"/>
<path d="M1788 2259 c-80 -52 -137 -161 -123 -232 15 -70 103 -178 145 -177
11 1 9 4 -5 12 -70 38 -127 125 -127 193 0 84 70 184 156 221 17 7 24 13 16
13 -8 1 -36 -13 -62 -30z"/>
<path d="M1930 2262 c57 -58 43 -193 -37 -365 -29 -62 -46 -84 -84 -112 -53
-38 -87 -91 -70 -108 16 -16 58 18 98 81 20 31 41 60 47 64 6 4 8 8 3 8 -4 0
4 22 18 50 88 173 100 360 26 400 -31 16 -31 12 -1 -18z m-111 -504 c-45 -66
-79 -95 -79 -68 0 14 80 100 92 100 5 0 -1 -15 -13 -32z"/>
<path d="M1910 1840 c-8 -5 -10 -10 -5 -10 6 0 17 5 25 10 8 5 11 10 5 10 -5
0 -17 -5 -25 -10z"/>
<path d="M950 1576 c0 -23 73 -159 126 -233 108 -154 294 -305 464 -379 252
-109 563 -124 818 -38 277 93 526 311 661 582 18 35 30 69 28 75 -2 7 -23 -26
-47 -73 -270 -539 -898 -769 -1449 -531 -236 101 -448 305 -557 536 -37 76
-44 86 -44 61z"/>
<path d="M2924 1070 c-11 -4 -28 -20 -38 -35 -10 -15 -14 -25 -8 -21 5 3 28
-14 49 -37 36 -39 41 -42 51 -26 9 15 8 19 -8 24 -35 11 -23 28 14 21 43 -8
58 10 16 19 -20 4 -30 13 -30 25 0 25 -21 39 -46 30z m30 -33 c8 -12 7 -20 -1
-28 -18 -18 -58 18 -41 38 13 16 28 13 42 -10z"/>
<path d="M982 1047 c-30 -31 -28 -58 6 -90 28 -27 29 -27 51 -9 22 17 22 19 5
32 -10 8 -15 10 -11 4 4 -7 0 -17 -9 -25 -12 -10 -18 -9 -31 4 -36 36 25 110
70 85 13 -7 18 -17 14 -34 -3 -19 -2 -22 9 -13 8 6 11 16 7 23 -29 51 -76 61
-111 23z"/>
<path d="M2720 889 c-19 -15 -30 -29 -23 -29 6 0 24 -20 40 -45 15 -24 30 -44
33 -44 3 0 18 10 34 23 22 18 27 29 21 43 -8 16 -9 16 -13 -5 -4 -28 -31 -40
-43 -21 -13 20 -11 27 8 31 14 3 14 5 -2 18 -13 11 -16 11 -11 2 6 -10 3 -13
-10 -10 -25 4 -26 44 -1 42 9 -1 17 2 17 7 0 19 -18 15 -50 -12z"/>
<path d="M1220 897 c0 -7 -15 -30 -34 -50 -32 -36 -33 -37 -14 -54 15 -13 18
-14 13 -2 -3 9 10 32 33 57 37 39 38 43 21 53 -14 7 -19 6 -19 -4z"/>
<path d="M1366 793 c-9 -22 -4 -24 17 -8 14 10 15 14 3 18 -8 3 -17 -1 -20
-10z"/>
<path d="M1394 748 c-10 -22 -24 -47 -31 -54 -11 -11 -10 -15 7 -24 16 -9 20
-8 20 5 0 25 40 96 50 90 6 -4 10 -13 10 -21 0 -8 5 -12 10 -9 17 11 11 24
-19 39 -28 15 -28 15 -47 -26z"/>
<path d="M2545 780 c-3 -5 -1 -10 4 -10 6 0 11 -19 11 -42 l-1 -43 -35 38
c-25 27 -39 35 -50 29 -12 -7 -4 -18 39 -55 30 -25 56 -45 58 -43 2 3 2 34 1
70 -3 62 -12 80 -27 56z"/>
<path d="M2265 683 c-23 -6 -45 -23 -28 -23 12 0 36 -86 28 -101 -7 -11 3 -11
30 1 11 5 14 9 8 9 -7 1 -13 11 -13 23 l0 21 23 -21 c24 -23 47 -29 47 -13 0
5 -10 15 -21 23 -19 12 -20 16 -8 35 10 18 11 24 0 37 -13 16 -28 18 -66 9z
m44 -17 c14 -16 4 -46 -14 -46 -16 0 -29 35 -20 50 9 14 20 13 34 -4z"/>
<path d="M1776 657 c-24 -17 -14 -49 20 -67 25 -14 29 -40 8 -47 -7 -2 -19 3
-27 12 -19 19 -27 19 -27 1 0 -15 51 -29 75 -20 25 10 17 47 -17 75 -28 23
-30 29 -19 43 16 19 11 21 -13 3z"/>
<path d="M1824 645 c8 -8 17 -15 20 -15 3 0 6 7 6 15 0 9 -9 15 -21 15 -18 0
-19 -2 -5 -15z"/>
<path d="M2005 585 c0 -56 2 -65 18 -65 17 0 18 6 13 60 -6 54 -4 60 12 60 10
0 24 -6 31 -12 11 -11 13 -10 9 2 -3 9 -20 16 -44 18 l-39 3 0 -66z"/>
<path d="M2054 599 c-3 -6 -1 -16 5 -22 8 -8 11 -5 11 11 0 24 -5 28 -16 11z"/>
<path d="M2070 540 c-13 -8 -12 -10 3 -10 9 0 17 5 17 10 0 12 -1 12 -20 0z"/>
</g>
</svg>
